<svg t="1691553222480" class="icon" viewBox="0 0 1024 1024" version="1.1" xmlns="http://www.w3.org/2000/svg" p-id="1258" width="200" height="200"><path d="M704 768V256H128v512h576z m64-416L960 256v512l-192-96v128a31.168 31.168 0 0 1-8.96 23.04 31.168 31.168 0 0 1-23.04 8.96h-640a31.168 31.168 0 0 1-23.04-8.96 31.168 31.168 0 0 1-8.96-23.04v-576c0-9.344 3.008-17.024 8.96-23.04A31.168 31.168 0 0 1 96 192h640c9.344 0 17.024 3.008 23.04 8.96 5.952 6.016 8.96 13.696 8.96 23.04v128z m0 72v176l128 64v-304l-128 64zM192 320h192v64H192V320z" p-id="1259"></path></svg>