<svg t="1689646256077" class="icon" viewBox="0 0 1024 1024" version="1.1" xmlns="http://www.w3.org/2000/svg" p-id="2749" width="200" height="200"><path d="M512 64c259.2 0 469.333333 200.576 469.333333 448s-210.133333 448-469.333333 448a484.48 484.48 0 0 1-232.725333-58.88l-116.394667 50.645333a42.666667 42.666667 0 0 1-58.517333-49.002666l29.76-125.013334C76.629333 703.402667 42.666667 611.477333 42.666667 512 42.666667 264.576 252.8 64 512 64z m0 64C287.488 128 106.666667 300.586667 106.666667 512c0 79.573333 25.557333 155.434667 72.554666 219.285333l5.525334 7.317334 18.709333 24.192-26.965333 113.237333 105.984-46.08 27.477333 15.018667C370.858667 878.229333 439.978667 896 512 896c224.512 0 405.333333-172.586667 405.333333-384S736.512 128 512 128z m-157.696 341.333333a42.666667 42.666667 0 1 1 0 85.333334 42.666667 42.666667 0 0 1 0-85.333334z m159.018667 0a42.666667 42.666667 0 1 1 0 85.333334 42.666667 42.666667 0 0 1 0-85.333334z m158.997333 0a42.666667 42.666667 0 1 1 0 85.333334 42.666667 42.666667 0 0 1 0-85.333334z" fill="#2F54EB" p-id="2750"></path></svg>