<svg t="1689752584815" class="icon" viewBox="0 0 1024 1024" version="1.1" xmlns="http://www.w3.org/2000/svg" p-id="6347" width="200" height="200"><path d="M480 452.266667m-426.666667 0a426.666667 426.666667 0 1 0 853.333334 0 426.666667 426.666667 0 1 0-853.333334 0Z" fill="#FFE500" p-id="6348"></path><path d="M480 25.6c-234.666667 0-426.666667 192-426.666667 426.666667s192 426.666667 426.666667 426.666666 426.666667-192 426.666667-426.666666-192-426.666667-426.666667-426.666667z m0 789.333333C264.533333 814.933333 91.733333 640 91.733333 426.666667c0-215.466667 174.933333-388.266667 388.266667-388.266667S870.4 211.2 870.4 426.666667c0 213.333333-174.933333 388.266667-390.4 388.266666z" fill="#EBCB00" p-id="6349"></path><path d="M352 110.933333a128 32 0 1 0 256 0 128 32 0 1 0-256 0Z" fill="#FFF48C" p-id="6350"></path><path d="M138.666667 966.4a341.333333 32 0 1 0 682.666666 0 341.333333 32 0 1 0-682.666666 0Z" fill="#45413C" opacity=".15" p-id="6351"></path><path d="M170.666667 558.933333a53.333333 32 0 1 0 106.666666 0 53.333333 32 0 1 0-106.666666 0Z" fill="#FFAA54" p-id="6352"></path><path d="M277.333333 409.6m-21.333333 0a21.333333 21.333333 0 1 0 42.666667 0 21.333333 21.333333 0 1 0-42.666667 0Z" fill="#45413C" p-id="6353"></path><path d="M693.333333 409.6m-21.333333 0a21.333333 21.333333 0 1 0 42.666667 0 21.333333 21.333333 0 1 0-42.666667 0Z" fill="#45413C" p-id="6354"></path><path d="M384 729.6s51.2-21.333333 96-21.333333 96 21.333333 96 21.333333M512 526.933333h416c23.466667 0 42.666667 19.2 42.666667 42.666667s-19.2 42.666667-42.666667 42.666667H512" fill="#FFE500" p-id="6355"></path></svg>