<?xml version="1.0" standalone="no"?><!DOCTYPE svg PUBLIC "-//W3C//DTD SVG 1.1//EN" "http://www.w3.org/Graphics/SVG/1.1/DTD/svg11.dtd"><svg t="1687940032741" class="icon" viewBox="0 0 1024 1024" version="1.1" xmlns="http://www.w3.org/2000/svg" p-id="887" xmlns:xlink="http://www.w3.org/1999/xlink" width="200" height="200"><path d="M1023.560892 524.587752c0 114.331752-32.549236 217.148443-97.647709 308.450075-65.047295 91.301632-149.132822 154.455339-252.205404 189.512299-11.975662 2.303012-20.778286 0.716493-26.305515-4.759558a27.584966 27.584966 0 0 1-8.342021-20.471218V853.150798c0-44.166653-11.566238-76.511177-34.647536-96.982394a446.272549 446.272549 0 0 0 68.32269-12.282731c20.16415-5.476051 41.044792-14.329852 62.590748-26.612583a187.311643 187.311643 0 0 0 53.992837-45.446104c14.432209-18.014672 26.203159-41.914819 35.312851-71.751618 9.109692-29.8368 13.664538-64.074912 13.664538-102.765514 0-55.118754-17.554069-102.049021-52.61103-140.739623 16.376974-41.454216 14.636921-87.872703-5.373695-139.357815-12.436265-4.094244-30.399759-1.535341-53.941659 7.523172a355.17563 355.17563 0 0 0-61.311297 30.041513l-25.333132 16.376974a462.137743 462.137743 0 0 0-127.945112-17.707604 462.137743 462.137743 0 0 0-127.945111 17.758782 589.571074 589.571074 0 0 0-28.301459-18.424096c-11.77095-7.31846-30.34858-16.069906-55.681713-26.305515-25.281954-10.235609-44.422543-13.306292-57.31941-9.212048-19.498835 51.433935-21.085354 97.852421-4.606024 139.306637-35.108139 38.690602-52.713386 85.620869-52.713386 140.739623 0 38.690602 4.606024 72.826357 13.715716 102.458445 9.109692 29.58091 20.778286 53.481057 34.954605 71.700441a180.658498 180.658498 0 0 0 53.634591 45.753172c21.545957 12.282731 42.477777 21.18771 62.641926 26.612583 20.215328 5.527229 42.989557 9.621472 68.32269 12.333909-17.758781 16.376974-28.659705 39.867697-32.651593 70.369811a129.941055 129.941055 0 0 1-29.990334 10.235609 184.087426 184.087426 0 0 1-37.974109 3.428929c-14.688099 0-29.171485-4.913092-43.654872-14.688099-14.432209-9.826185-26.766117-24.053681-37.001726-42.682489a109.162769 109.162769 0 0 0-32.293346-35.517563c-13.101579-9.109692-24.104859-14.585743-33.009839-16.376974l-13.306292-2.047122c-9.314404 0-15.762838 1.023561-19.345301 3.070683-3.582463 2.047122-4.606024 4.606024-3.326572 7.83024a37.769397 37.769397 0 0 0 5.987831 9.570295 49.182101 49.182101 0 0 0 8.700267 8.188487l4.606024 3.377751c9.826185 4.606024 19.447657 13.255114 29.017952 25.998447 9.570294 12.743333 16.581686 24.360749 20.982998 34.80107l6.653146 15.71166c5.783119 17.298179 15.558126 31.320963 29.376197 42.017174 13.766894 10.747389 28.659705 17.554069 44.627255 20.471218 15.96755 2.968327 31.423319 4.606024 46.316131 4.810736 14.841633 0.204712 27.22672-0.562958 37.001726-2.405368l15.302235-2.712436c0 17.298179 0.102356 37.564685 0.358247 60.799517l0.307068 36.848192c0 8.188487-2.86597 15.046345-8.700268 20.471218-5.731941 5.527229-14.636921 7.113748-26.612583 4.810736-103.072582-35.056961-187.158109-98.261846-252.205404-189.512299C32.549236 741.736195 0 638.919504 0 524.587752c0-95.191163 22.876586-182.910331 68.629758-263.31104a516.028224 516.028224 0 0 1 186.288082-190.894106A491.309228 491.309228 0 0 1 511.780446 0.012795a491.309228 491.309228 0 0 1 256.913784 70.369811 516.028224 516.028224 0 0 1 186.236905 190.894106C1000.684306 341.626242 1023.560892 429.447767 1023.560892 524.587752z" p-id="888"></path></svg>