<svg t="1689750291003" class="icon" viewBox="0 0 1024 1024" version="1.1" xmlns="http://www.w3.org/2000/svg" p-id="2521" width="200" height="200"><path d="M837.603556 277.134222a2.275556 2.275556 0 0 0-0.056889-0.483555c-0.199111-0.654222 14.848 44.856889-0.597334-1.934223a88.462222 88.462222 0 0 0-0.995555-2.929777c-14.961778-42.496-39.224889-58.965333-57.002667-62.321778-22.840889-4.352-47.587556 5.774222-47.587555 35.498667 0 4.437333 0.853333 9.272889 2.417777 14.250666l-0.142222-0.028444c0.085333 0.256 0.227556 0.512 0.369778 0.768 1.621333 5.063111 3.953778 10.268444 6.769778 15.445333 13.767111 34.019556 21.333333 71.224889 21.333333 110.165333 0 76.117333-28.956444 145.521778-76.458667 197.802667 102.030222 60.273778 177.208889 184.149333 203.064889 303.672889H981.333333c-21.162667-119.978667-82.915556-248.632889-170.524444-325.632a385.194667 385.194667 0 0 0 42.154667-175.843556 386.275556 386.275556 0 0 0-15.36-108.430222zM429.056 637.013333a250.026667 250.026667 0 1 0-0.028444-500.081777 250.026667 250.026667 0 0 0 0.028444 500.081777z m158.151111-253.354666a161.479111 161.479111 0 1 1-322.958222 0 161.479111 161.479111 0 0 1 322.958222 0z m182.784 503.381333c-30.663111-180.878222-180.707556-340.935111-352.483555-340.935111-191.744 0-343.950222 160.056889-374.840889 340.935111h91.306666c29.354667-130.304 141.624889-250.026667 283.534223-250.026667 122.737778 0 232.248889 119.694222 261.205333 250.026667h91.278222z" p-id="2522"></path></svg>