<svg t="1691555195526" class="icon" viewBox="0 0 1152 1024" version="1.1" xmlns="http://www.w3.org/2000/svg" p-id="2625" width="200" height="200"><path d="M1091.242667 116.032c31.722667 10.005333 54.592 39.253333 54.741333 73.536v630.250667c0 28.928-16.618667 55.424-43.029333 68.672L714.368 1006.72c-4.309333 0.704-8.597333 1.28-13.162667 1.28-35.029333 0-63.488-27.733333-63.488-61.994667V61.845333C637.717333 27.733333 666.176 0 701.205333 0c4.416 0 8.832 0.405333 13.162667 1.258667L1093.504 116.693333c-0.554667-0.128-1.429333-0.426667-2.261333-0.682666z m-40.618667 676.757333V215.04L733.077333 132.586667v742.656l317.546667-82.453334zM450.944 0c35.2 0 63.637333 27.733333 63.338667 61.845333v884.16c0 34.282667-28.437333 61.994667-63.466667 61.994667-4.48 0-8.917333-0.426667-13.312-1.258667L49.194667 888.490667C23.594667 875.52 6.186667 849.621333 6.186667 819.690667V189.717333c0-35.52 24.746667-65.493333 58.346666-74.517333-0.277333 0.128-0.725333 0.128-1.28 0.256L437.781333 1.28c4.266667-0.704 8.576-1.258667 13.141334-1.258667z" fill="" p-id="2626"></path></svg>