<?xml version="1.0" standalone="no"?><!DOCTYPE svg PUBLIC "-//W3C//DTD SVG 1.1//EN" "http://www.w3.org/Graphics/SVG/1.1/DTD/svg11.dtd"><svg t="1687940179852" class="icon" viewBox="0 0 1024 1024" version="1.1" xmlns="http://www.w3.org/2000/svg" p-id="1102" xmlns:xlink="http://www.w3.org/1999/xlink" width="200" height="200"><path d="M505.718589 1024a459.192825 459.192825 0 0 1-415.006346-264.772316L60.474829 694.420848l63.680514 32.576698a403.223285 403.223285 0 0 0 185.929774 44.879601A409.114815 409.114815 0 0 0 718.940012 363.195533 404.522887 404.522887 0 0 0 680.645063 190.608342l-30.150774-64.546915 63.593874 32.663338a457.719942 457.719942 0 0 1-207.936374 865.275235z m-335.643963-225.264405a408.594974 408.594974 0 1 0 580.489043-559.782046 453.041374 453.041374 0 0 1 17.328031 123.895423 458.326424 458.326424 0 0 1-457.806583 458.153143 452.781454 452.781454 0 0 1-140.010491-21.919959z" p-id="1103"></path><path d="M315.976648 726.737626l-18.887554-248.050766-164.183095-29.977494 164.616296-30.064134 30.757255-259.920467 30.757255 260.353668 165.396057 30.064134-164.616295 29.977494-19.407395 247.617565z m-46.265843-278.02826L320.395296 457.893223l8.057534 106.04755 8.057535-106.04755 50.684491-9.183857-50.251291-8.664015-8.664015-71.738049-8.664016 71.738049zM550.338269 383.036128l-11.0033-144.86234-121.296218-22.09324 121.296218-22.17988L562.987732 0l22.873001 193.900668 121.816059 22.17988-121.816059 22.09324-11.08994 144.86234z m4.591928-166.95558l7.451054 1.299603v2.859125-2.859125l7.364413-1.299603-6.757932-1.299602-0.606481-5.198409-0.606482 5.198409z" p-id="1104"></path></svg>