<?xml version="1.0" standalone="no"?><!DOCTYPE svg PUBLIC "-//W3C//DTD SVG 1.1//EN" "http://www.w3.org/Graphics/SVG/1.1/DTD/svg11.dtd"><svg t="1687836242699" class="icon" viewBox="0 0 1024 1024" version="1.1" xmlns="http://www.w3.org/2000/svg" p-id="857" xmlns:xlink="http://www.w3.org/1999/xlink" width="200" height="200"><path d="M333.275 191.049h597.418c16.511 0 29.871-14.328 29.871-32s-13.36-32-29.871-32H333.275c-16.496 0-29.871 14.328-29.871 32s13.375 32 29.871 32zM930.693 479.5H333.275c-16.496 0-29.871 14.328-29.871 32s13.375 32 29.871 32h597.418c16.511 0 29.871-14.328 29.871-32s-13.36-32-29.871-32z m0 352.451H333.275c-16.496 0-29.871 14.313-29.871 32 0 17.687 13.375 32 29.871 32h597.418c16.511 0 29.871-14.313 29.871-32 0-17.687-13.36-32-29.871-32zM128.197 97.307c-35.211 0-63.76 28.549-63.76 63.76s28.549 63.76 63.76 63.76 63.761-28.549 63.761-63.76-28.55-63.76-63.761-63.76z m-0.118 350.659c-35.146 0-63.642 28.681-63.642 64.055 0 35.373 28.496 64.053 63.642 64.053s63.642-28.681 63.642-64.053c0-35.374-28.496-64.055-63.642-64.055z m-0.382 354.243c-34.935 0-63.26 28.325-63.26 63.261s28.325 63.26 63.26 63.26 63.261-28.324 63.261-63.26-28.326-63.261-63.261-63.261z" p-id="858"></path></svg>